<?xml version="1.0" standalone="no"?>
<!DOCTYPE svg PUBLIC "-//W3C//DTD SVG 20010904//EN"
 "http://www.w3.org/TR/2001/REC-SVG-20010904/DTD/svg10.dtd">
<svg version="1.0" xmlns="http://www.w3.org/2000/svg"
 width="1499.000000pt" height="419.000000pt" viewBox="0 0 1499.000000 419.000000"
 preserveAspectRatio="xMidYMid meet">

<g transform="translate(0.000000,419.000000) scale(0.100000,-0.100000)"
fill="#000000" stroke="none">
<path d="M1679 4020 l-196 -18 -389 -273 c-214 -150 -390 -273 -391 -274 -1 0
-104 -370 -228 -820 -124 -451 -246 -892 -270 -980 -35 -125 -42 -162 -32
-171 6 -6 170 -130 362 -274 263 -199 1307 -985 1380 -1041 6 -4 85 48 185
124 96 73 488 368 870 656 382 288 701 529 707 535 10 9 3 46 -32 171 -24 88
-146 529 -270 980 -124 450 -227 820 -228 820 -1 1 -177 124 -391 274 l-388
272 -217 19 c-250 23 -219 23 -472 0z m166 -100 c73 -25 83 -25 165 1 59 19
79 21 183 14 l117 -7 336 -274 c185 -151 346 -282 359 -292 22 -17 31 -70 153
-883 71 -475 129 -865 128 -866 -1 -1 -49 42 -107 97 l-105 98 -43 -86 c-24
-48 -81 -160 -128 -250 l-84 -162 -130 115 c-72 63 -134 115 -139 115 -4 0
-65 -99 -135 -220 -70 -120 -132 -226 -139 -235 -9 -13 -36 6 -178 130 -91 80
-169 145 -173 145 -3 0 -81 -65 -172 -146 -91 -80 -169 -141 -173 -137 -4 4
-68 113 -143 240 l-135 233 -136 -120 -135 -120 -85 163 c-46 89 -104 201
-127 249 l-43 87 -100 -96 c-55 -53 -102 -91 -103 -86 -2 6 53 393 122 860
114 771 128 850 148 870 12 11 175 145 361 297 l339 275 56 4 c145 9 189 7
246 -13z"/>
<path d="M1813 3816 c3 -7 26 -85 52 -172 25 -88 49 -167 51 -177 3 -10 8 -17
10 -14 7 7 114 371 110 375 -2 2 -28 -4 -58 -13 -48 -14 -59 -14 -103 0 -62
18 -68 19 -62 1z"/>
<path d="M924 3198 l-72 -10 -6 -36 c-3 -20 -4 -37 -3 -38 1 -2 37 6 80 16
l79 18 78 -24 79 -24 -5 -33 c-24 -163 -24 -158 9 -214 18 -29 36 -53 42 -54
5 0 43 -4 83 -8 l73 -7 62 52 62 52 53 -51 52 -51 0 39 0 40 -207 134 c-186
120 -310 189 -368 203 -11 3 -52 1 -91 -4z"/>
<path d="M2753 3167 c-50 -23 -182 -100 -292 -172 l-201 -130 0 -40 0 -39 53
51 52 52 63 -52 63 -53 72 8 c40 4 77 7 84 7 6 1 25 25 41 54 l30 54 -12 97
-12 96 77 24 77 24 79 -18 c43 -10 79 -17 81 -15 2 1 0 19 -3 38 -7 35 -8 35
-68 42 -34 3 -69 8 -77 10 -8 3 -56 -15 -107 -38z"/>
<path d="M1803 2935 l-121 -104 -6 -68 c-4 -37 -9 -92 -11 -121 l-5 -54 60 53
c40 35 80 84 121 151 33 54 63 98 65 98 2 0 -8 -26 -22 -57 -14 -32 -35 -80
-47 -108 -12 -28 -54 -86 -95 -132 -72 -80 -76 -82 -131 -89 -37 -5 -97 -1
-175 10 -65 9 -120 15 -122 13 -2 -1 55 -18 126 -36 l128 -33 115 -112 115
-111 63 -289 c35 -158 65 -284 66 -280 2 5 32 137 67 294 l64 285 114 107 113
106 123 32 c68 17 126 30 128 27 2 -2 -44 -21 -103 -42 -106 -38 -109 -40
-224 -147 -105 -97 -143 -147 -125 -165 13 -13 101 55 171 132 l77 85 89 0 88
0 54 80 55 79 -28 -2 c-15 -1 -26 -6 -23 -11 4 -5 -6 -6 -20 -2 -14 3 -70 -1
-124 -10 -60 -10 -125 -14 -167 -10 l-69 5 -73 78 c-61 65 -81 96 -120 183
-65 147 -64 148 9 30 45 -71 86 -122 127 -159 l61 -53 -5 58 c-3 33 -8 88 -12
124 l-6 65 -95 80 c-52 44 -107 90 -122 102 l-28 22 -120 -104z"/>
<path d="M1240 2533 c0 -3 23 -38 51 -79 l51 -74 88 0 88 0 78 -85 c69 -76
158 -145 170 -132 18 17 -21 69 -122 163 l-114 106 -125 47 c-69 26 -123 49
-121 52 2 2 -7 5 -20 5 -13 1 -24 0 -24 -3z"/>
<path d="M7670 3244 c-8 -1 -50 -6 -92 -9 l-78 -7 0 -574 0 -574 135 0 135 0
2 261 3 260 150 -260 150 -261 149 0 c114 0 147 3 143 13 -2 6 -66 113 -141
236 l-136 224 39 29 c106 77 156 207 139 356 -18 158 -134 262 -333 297 -77
13 -223 19 -265 9z m260 -250 c44 -26 70 -81 70 -146 0 -87 -49 -144 -169
-199 l-61 -28 0 201 0 201 64 -5 c36 -3 78 -14 96 -24z"/>
<path d="M8900 3240 c-186 -33 -334 -164 -397 -354 -24 -74 -27 -95 -27 -236
-1 -124 3 -167 18 -215 76 -248 259 -375 540 -375 116 0 220 13 289 36 l47 16
0 294 0 294 -159 0 -159 0 -51 -99 c-28 -55 -51 -102 -51 -105 0 -3 38 -6 85
-6 l85 0 0 -95 c0 -94 0 -95 -26 -101 -39 -10 -140 3 -187 24 -115 52 -165
172 -155 370 9 162 61 258 165 304 34 15 66 19 142 19 54 0 111 -5 126 -11 15
-6 29 -9 30 -8 9 11 105 190 105 197 0 12 -95 40 -172 51 -74 11 -184 11 -248
0z"/>
<path d="M10680 3241 l-65 -6 -3 -577 -2 -578 135 0 135 0 0 170 0 170 53 0
c85 0 220 26 273 53 62 31 138 112 165 174 44 104 42 292 -6 388 -30 63 -109
139 -172 167 -95 42 -301 58 -513 39z m375 -251 c85 -52 102 -203 32 -279 -34
-37 -96 -61 -157 -61 l-55 0 3 186 3 187 68 -5 c48 -4 80 -12 106 -28z"/>
<path d="M13281 3234 c-165 -44 -272 -161 -322 -351 -29 -106 -31 -314 -5
-428 60 -262 219 -395 473 -395 105 0 174 15 245 52 119 63 198 175 234 333
24 103 24 318 1 422 -44 201 -168 334 -345 372 -72 15 -215 13 -281 -5z m233
-228 c43 -18 91 -77 107 -135 10 -31 14 -103 14 -221 0 -158 -3 -180 -23 -232
-33 -82 -107 -138 -182 -138 -75 0 -149 56 -182 138 -20 51 -22 74 -23 232 0
187 11 247 57 306 45 56 158 81 232 50z"/>
<path d="M4487 3233 c-3 -5 -5 -266 -6 -580 l-1 -573 350 0 350 0 0 110 0 110
-215 0 -216 0 3 133 3 132 163 3 162 2 0 115 0 115 -165 0 -165 0 0 105 0 105
180 0 179 0 21 73 c12 39 25 85 31 101 19 59 38 56 -330 56 -187 0 -342 -3
-344 -7z"/>
<path d="M5376 3218 c-7 -13 -31 -58 -53 -100 l-40 -77 76 -3 76 -3 3 -477 2
-478 125 0 125 0 0 326 0 327 86 -143 c47 -78 136 -223 198 -323 l111 -182
113 -3 112 -3 0 581 0 581 -127 -3 -128 -3 -5 -325 c-3 -179 -8 -317 -13 -306
-8 20 -338 563 -369 609 l-19 27 -129 0 c-124 0 -130 -1 -144 -22z"/>
<path d="M6590 2660 l0 -580 350 0 350 0 0 110 0 110 -215 0 -215 0 0 135 0
135 165 0 165 0 0 115 0 115 -165 0 -165 0 0 105 0 105 178 0 179 0 28 103
c15 56 30 108 33 115 3 9 -69 12 -342 12 l-346 0 0 -580z"/>
<path d="M9470 3237 c0 -2 80 -165 178 -363 l177 -359 5 -220 5 -220 133 -3
132 -3 0 211 0 210 101 203 c56 111 139 280 185 375 l83 172 -142 0 -142 0
-100 -229 c-55 -125 -104 -229 -110 -231 -5 -1 -55 101 -111 226 l-102 229
-146 3 c-80 1 -146 1 -146 -1z"/>
<path d="M11607 3233 c-4 -3 -7 -264 -7 -580 l0 -573 135 0 135 0 0 580 0 580
-128 0 c-71 0 -132 -3 -135 -7z"/>
<path d="M12120 2660 l0 -580 355 0 355 0 0 215 c0 118 -3 215 -7 215 -5 0
-54 -21 -110 -47 l-103 -46 0 -60 c0 -57 -1 -59 -22 -53 -13 3 -65 6 -115 6
l-93 0 0 465 0 465 -130 0 -130 0 0 -580z"/>
<path d="M14000 3125 l0 -114 138 -3 137 -3 3 -462 2 -463 135 0 135 0 0 465
0 465 108 0 108 0 24 73 c13 39 29 91 36 115 l13 42 -419 0 -420 0 0 -115z"/>
<path d="M4515 1255 c-19 -18 -25 -35 -25 -65 0 -50 17 -84 65 -130 56 -53 67
-99 28 -114 -21 -9 -43 12 -43 40 0 19 -5 24 -25 24 -22 0 -25 -4 -25 -39 0
-31 6 -44 26 -60 37 -29 94 -28 121 2 48 53 36 115 -37 193 -38 40 -50 60 -50
84 0 34 22 49 45 30 8 -7 15 -21 15 -31 0 -15 7 -19 31 -19 24 0 30 3 25 16
-3 9 -6 24 -6 34 0 57 -100 81 -145 35z"/>
<path d="M4730 1085 l0 -195 25 0 25 0 0 127 c0 69 2 124 5 121 5 -5 45 -219
45 -240 0 -5 13 -8 29 -8 29 0 29 0 41 88 26 180 28 183 29 45 l1 -133 30 0
30 0 0 195 0 195 -43 0 -44 0 -18 -130 c-11 -72 -22 -125 -26 -118 -3 7 -15
66 -25 131 l-18 117 -43 0 -43 0 0 -195z"/>
<path d="M5106 1253 c-8 -40 -56 -340 -56 -352 0 -6 11 -11 24 -11 24 0 36 16
36 51 0 15 7 19 39 19 36 0 39 -2 45 -35 6 -31 10 -35 38 -35 26 0 29 3 25 23
-3 12 -17 100 -32 195 l-28 172 -43 0 c-38 0 -43 -3 -48 -27z m73 -230 c1 -14
-45 -18 -53 -5 -6 9 11 137 21 162 5 12 29 -107 32 -157z"/>
<path d="M5320 1086 l0 -196 30 0 30 0 0 80 c0 72 2 80 19 80 30 0 40 -21 43
-90 3 -64 3 -65 33 -68 l30 -3 -5 79 c-3 44 -11 86 -18 95 -12 14 -11 20 2 39
23 32 21 119 -3 149 -16 19 -30 24 -90 27 l-71 4 0 -196z m118 84 c3 -33 -1
-47 -14 -57 -35 -26 -44 -16 -44 48 0 60 0 60 28 57 24 -3 27 -7 30 -48z"/>
<path d="M5560 1250 c0 -27 3 -30 30 -30 l30 0 0 -165 0 -165 30 0 30 0 0 165
0 165 30 0 c27 0 30 3 30 30 l0 30 -90 0 -90 0 0 -30z"/>
<path d="M5920 1085 l0 -195 80 0 80 0 0 30 c0 29 -1 30 -50 30 l-50 0 0 55 0
55 40 0 c36 0 40 3 40 25 0 23 -4 25 -40 25 l-40 0 0 55 0 55 50 0 c49 0 50 1
50 30 l0 30 -80 0 -80 0 0 -195z"/>
<path d="M6150 1085 l0 -195 25 0 24 0 3 138 3 137 17 -55 c9 -30 26 -92 38
-137 21 -80 23 -83 51 -83 l29 0 0 195 0 195 -25 0 c-24 0 -24 0 -27 -112 l-3
-113 -29 113 -29 112 -38 0 -39 0 0 -195z"/>
<path d="M6420 1085 l0 -195 80 0 80 0 0 30 c0 29 -1 30 -50 30 l-50 0 0 55 0
55 40 0 c36 0 40 3 40 25 0 23 -4 25 -40 25 l-40 0 0 55 0 55 50 0 c49 0 50 1
50 30 l0 30 -80 0 -80 0 0 -195z"/>
<path d="M6650 1086 l0 -196 30 0 30 0 0 80 c0 79 0 80 25 80 32 0 45 -31 45
-106 0 -54 0 -54 31 -54 28 0 31 3 25 23 -3 12 -6 48 -6 79 0 39 -5 62 -16 73
-15 15 -15 17 0 34 11 12 16 36 16 78 0 80 -17 96 -111 101 l-69 4 0 -196z
m120 108 c13 -33 3 -72 -21 -85 -30 -16 -39 -2 -39 57 0 51 1 54 25 54 18 0
28 -7 35 -26z"/>
<path d="M6942 1273 c-31 -12 -42 -61 -42 -188 0 -168 14 -195 96 -195 24 0
43 8 59 25 23 22 25 32 25 110 l0 85 -40 0 c-38 0 -40 -2 -40 -30 0 -20 5 -30
15 -30 21 0 20 -73 -1 -94 -42 -42 -55 -8 -52 134 3 106 5 124 21 134 15 9 21
7 33 -8 8 -11 14 -30 14 -43 0 -18 6 -23 25 -23 23 0 25 4 25 40 0 55 -34 90
-87 89 -21 0 -44 -3 -51 -6z"/>
<path d="M7130 1269 c0 -6 16 -63 35 -126 25 -84 35 -134 35 -184 l0 -69 30 0
30 0 0 61 c0 52 42 225 77 315 4 10 -4 14 -25 14 -28 0 -30 -3 -52 -85 -13
-47 -24 -85 -25 -85 -2 0 -13 38 -26 85 -21 82 -23 85 -51 85 -15 0 -28 -5
-28 -11z"/>
<path d="M7510 1085 l0 -195 30 0 30 0 0 80 0 80 40 0 c38 0 40 2 40 30 0 28
-2 30 -40 30 l-40 0 0 55 0 55 50 0 c49 0 50 1 50 30 l0 30 -80 0 -80 0 0
-195z"/>
<path d="M7755 1255 c-24 -23 -25 -28 -25 -170 0 -142 1 -147 25 -170 18 -19
35 -25 65 -25 30 0 47 6 65 25 24 23 25 28 25 170 0 142 -1 147 -25 170 -18
19 -35 25 -65 25 -30 0 -47 -6 -65 -25z m79 -31 c13 -5 16 -27 16 -134 0 -133
-8 -158 -44 -144 -14 5 -16 26 -16 139 0 97 3 135 13 138 6 3 13 6 14 6 1 1 8
-2 17 -5z"/>
<path d="M7980 1086 l0 -196 30 0 30 0 0 81 0 80 27 -3 c32 -4 40 -26 42 -105
1 -52 1 -53 32 -53 28 0 31 3 25 23 -3 12 -6 48 -6 79 0 39 -5 62 -16 73 -15
15 -15 17 0 34 11 12 16 36 16 78 0 80 -17 96 -111 101 l-69 4 0 -196z m118
82 c3 -39 0 -49 -18 -58 -31 -17 -40 -4 -40 56 0 54 0 55 28 52 25 -3 27 -7
30 -50z"/>
<path d="M8395 1258 c-8 -35 -55 -337 -55 -353 0 -9 10 -15 25 -15 20 0 25 6
31 35 6 33 9 35 45 35 32 0 39 -4 39 -19 0 -37 12 -51 42 -51 23 0 28 4 25 18
-3 9 -18 97 -33 195 l-28 177 -43 0 c-36 0 -43 -3 -48 -22z m61 -156 c6 -42
10 -80 7 -84 -2 -5 -16 -8 -30 -8 -24 0 -25 2 -19 38 3 20 9 61 12 90 4 29 10
50 13 47 3 -4 11 -41 17 -83z"/>
<path d="M8745 1255 c-19 -18 -25 -35 -25 -65 0 -50 17 -84 65 -130 56 -53 67
-99 28 -114 -21 -9 -43 12 -43 40 0 19 -5 24 -25 24 -22 0 -25 -4 -25 -39 0
-48 35 -81 86 -81 40 0 82 35 85 70 4 68 -1 82 -56 139 -43 45 -55 65 -55 90
0 35 22 50 45 31 8 -7 15 -21 15 -31 0 -14 7 -19 25 -19 22 0 25 4 25 33 0 71
-93 105 -145 52z"/>
<path d="M8960 1110 c0 -168 0 -171 25 -195 34 -35 96 -35 130 0 25 24 25 27
25 195 l0 170 -30 0 -30 0 0 -164 c0 -142 -2 -165 -16 -170 -38 -15 -44 10
-44 175 l0 159 -30 0 -30 0 0 -170z"/>
<path d="M9232 1257 c-16 -16 -22 -36 -22 -66 0 -52 11 -74 65 -131 24 -25 44
-52 45 -60 5 -32 -1 -48 -16 -54 -22 -9 -44 11 -44 40 0 20 -5 24 -31 24 -31
0 -31 -1 -24 -37 14 -78 89 -109 149 -62 22 18 26 28 26 74 0 51 -3 57 -55
113 -42 46 -55 67 -55 91 0 35 22 50 45 31 8 -7 15 -21 15 -31 0 -14 7 -19 25
-19 22 0 25 4 25 33 0 71 -99 106 -148 54z"/>
<path d="M9430 1250 c0 -28 3 -30 35 -30 l35 0 0 -165 0 -165 30 0 30 0 0 165
0 165 30 0 c27 0 30 3 30 30 l0 30 -95 0 -95 0 0 -30z"/>
<path d="M9676 1103 c-15 -98 -30 -186 -33 -195 -3 -14 2 -18 26 -18 26 0 30
4 33 33 3 30 5 32 43 32 38 0 40 -2 43 -32 3 -29 7 -33 33 -33 19 0 29 5 29
15 0 16 -47 318 -55 353 -5 19 -12 22 -48 22 l-43 0 -28 -177z m90 -30 c6 -63
6 -63 -20 -63 -31 0 -31 5 -14 117 11 72 12 75 19 43 4 -19 11 -63 15 -97z"/>
<path d="M9910 1085 l0 -195 30 0 30 0 0 195 0 195 -30 0 -30 0 0 -195z"/>
<path d="M10050 1086 l0 -196 25 0 24 0 3 138 3 137 23 -85 c56 -202 50 -190
83 -190 l29 0 0 195 0 195 -25 0 c-24 0 -24 0 -27 -112 l-3 -113 -30 110 -30
110 -37 3 -38 3 0 -195z"/>
<path d="M10336 1108 c-15 -95 -30 -183 -33 -195 -4 -20 -1 -23 26 -23 29 0
31 2 31 36 l0 35 43 -3 c39 -3 42 -5 45 -35 3 -29 7 -33 33 -33 17 0 29 5 29
13 0 14 -46 304 -56 350 -5 24 -10 27 -48 27 l-43 0 -27 -172z m93 -70 c1 -24
-3 -28 -25 -28 l-27 0 7 65 c4 36 10 80 13 98 6 29 8 25 19 -38 7 -38 13 -82
13 -97z"/>
<path d="M10570 1086 l0 -196 54 0 c62 0 103 13 122 38 26 34 13 142 -19 164
-6 4 -4 12 6 23 12 11 17 33 17 69 0 73 -20 89 -111 94 l-69 4 0 -196z m120
109 c14 -37 -3 -75 -35 -75 -23 0 -25 3 -25 50 0 47 2 50 25 50 18 0 28 -7 35
-25z m-1 -139 c7 -8 11 -34 9 -58 -3 -40 -5 -43 -35 -46 l-33 -3 0 54 c0 29 3
57 7 60 11 12 40 8 52 -7z"/>
<path d="M10830 1085 l0 -195 80 0 80 0 0 30 c0 29 -1 30 -50 30 l-50 0 0 165
0 165 -30 0 -30 0 0 -195z"/>
<path d="M11050 1085 l0 -195 80 0 80 0 0 30 c0 29 -1 30 -50 30 l-50 0 0 55
0 55 40 0 c36 0 40 3 40 25 0 23 -4 25 -40 25 l-40 0 0 55 0 55 50 0 c49 0 50
1 50 30 l0 30 -80 0 -80 0 0 -195z"/>
<path d="M11400 1085 l0 -195 30 0 30 0 0 80 0 80 40 0 c38 0 40 2 40 30 0 28
-2 30 -40 30 l-40 0 0 55 0 55 50 0 c49 0 50 1 50 30 l0 30 -80 0 -80 0 0
-195z"/>
<path d="M11620 1110 c0 -168 0 -171 25 -195 17 -17 35 -25 60 -25 83 0 95 30
95 236 l0 154 -30 0 -30 0 0 -159 c0 -165 -6 -190 -44 -175 -14 5 -16 28 -16
170 l0 164 -30 0 -30 0 0 -170z"/>
<path d="M11850 1250 c0 -28 3 -30 35 -30 l35 0 0 -165 0 -165 30 0 30 0 0
165 0 165 30 0 c27 0 30 3 30 30 l0 30 -95 0 -95 0 0 -30z"/>
<path d="M12100 1106 l0 -175 26 -20 c38 -30 94 -28 125 5 23 25 24 32 27 195
l4 169 -31 0 -31 0 0 -159 c0 -164 -6 -190 -43 -175 -23 8 -27 36 -27 192 l0
142 -25 0 -25 0 0 -174z"/>
<path d="M12350 1086 l0 -196 30 0 30 0 0 80 c0 72 2 80 19 80 30 0 40 -21 43
-90 3 -63 4 -65 31 -68 l27 -3 0 73 c0 50 -5 81 -16 96 -14 20 -14 24 0 44 23
32 21 120 -3 149 -16 19 -30 24 -90 27 l-71 4 0 -196z m118 84 c3 -33 -1 -47
-14 -57 -35 -26 -44 -16 -44 48 0 60 0 60 28 57 24 -3 27 -7 30 -48z"/>
<path d="M12600 1085 l0 -195 85 0 85 0 0 30 c0 30 -1 30 -55 30 l-55 0 0 55
0 55 45 0 c41 0 45 2 45 24 0 22 -5 25 -42 28 l-43 3 -3 53 -3 52 55 0 c56 0
56 0 56 30 l0 30 -85 0 -85 0 0 -195z"/>
</g>
</svg>
